<svg id="visual" viewBox="0 0 900 600" width="900" height="600" xmlns="http://www.w3.org/2000/svg" xmlns:xlink="http://www.w3.org/1999/xlink" version="1.1"><rect x="0" y="0" width="900" height="600" fill="#001220"></rect><defs><linearGradient id="grad1_0" x1="33.3%" y1="0%" x2="100%" y2="100%"><stop offset="20%" stop-color="#4facf7" stop-opacity="1"></stop><stop offset="80%" stop-color="#4facf7" stop-opacity="1"></stop></linearGradient></defs><defs><linearGradient id="grad1_1" x1="33.3%" y1="0%" x2="100%" y2="100%"><stop offset="20%" stop-color="#4facf7" stop-opacity="1"></stop><stop offset="80%" stop-color="#001220" stop-opacity="1"></stop></linearGradient></defs><defs><linearGradient id="grad2_0" x1="0%" y1="0%" x2="66.7%" y2="100%"><stop offset="20%" stop-color="#4facf7" stop-opacity="1"></stop><stop offset="80%" stop-color="#4facf7" stop-opacity="1"></stop></linearGradient></defs><defs><linearGradient id="grad2_1" x1="0%" y1="0%" x2="66.7%" y2="100%"><stop offset="20%" stop-color="#001220" stop-opacity="1"></stop><stop offset="80%" stop-color="#4facf7" stop-opacity="1"></stop></linearGradient></defs><g transform="translate(900, 0)"><path d="M0 378.6C-42.9 379.2 -85.7 379.9 -117 360.1C-148.2 340.2 -167.9 299.8 -200.4 275.9C-233 251.9 -278.4 244.4 -300.1 218.1C-321.9 191.7 -319.9 146.4 -329.1 106.9C-338.2 67.4 -358.4 33.7 -378.6 0L0 0Z" fill="#245983"></path><path d="M0 189.3C-21.4 189.6 -42.9 190 -58.5 180C-74.1 170.1 -83.9 149.9 -100.2 137.9C-116.5 126 -139.2 122.2 -150.1 109C-160.9 95.8 -160 73.2 -164.5 53.5C-169.1 33.7 -179.2 16.9 -189.3 0L0 0Z" fill="#4facf7"></path></g><g transform="translate(0, 600)"><path d="M0 -378.6C45.2 -382.7 90.4 -386.8 117 -360.1C143.6 -333.3 151.6 -275.7 179.9 -247.6C208.1 -219.5 256.5 -220.9 273.4 -198.7C290.4 -176.5 275.9 -130.7 288.2 -93.6C300.4 -56.6 339.5 -28.3 378.6 0L0 0Z" fill="#245983"></path><path d="M0 -189.3C22.6 -191.3 45.2 -193.4 58.5 -180C71.8 -166.6 75.8 -137.8 89.9 -123.8C104 -109.7 128.2 -110.4 136.7 -99.3C145.2 -88.2 137.9 -65.3 144.1 -46.8C150.2 -28.3 169.8 -14.1 189.3 0L0 0Z" fill="#4facf7"></path></g></svg>