<svg id="visual" viewBox="0 0 960 540" width="960" height="540" xmlns="http://www.w3.org/2000/svg" xmlns:xlink="http://www.w3.org/1999/xlink" version="1.1"><rect x="0" y="0" width="960" height="540" fill="#d7dde2"></rect><path d="M0 296L20 293.8C40 291.7 80 287.3 120 280.8C160 274.3 200 265.7 240 261.3C280 257 320 257 360 249.5C400 242 440 227 480 236.3C520 245.7 560 279.3 600 280.7C640 282 680 251 720 244.5C760 238 800 256 840 272.5C880 289 920 304 940 311.5L960 319L960 541L940 541C920 541 880 541 840 541C800 541 760 541 720 541C680 541 640 541 600 541C560 541 520 541 480 541C440 541 400 541 360 541C320 541 280 541 240 541C200 541 160 541 120 541C80 541 40 541 20 541L0 541Z" fill="#6c63ff"></path><path d="M0 269L20 266.2C40 263.3 80 257.7 120 268.7C160 279.7 200 307.3 240 321.7C280 336 320 337 360 337C400 337 440 336 480 328C520 320 560 305 600 305.3C640 305.7 680 321.3 720 318.7C760 316 800 295 840 289C880 283 920 292 940 296.5L960 301L960 541L940 541C920 541 880 541 840 541C800 541 760 541 720 541C680 541 640 541 600 541C560 541 520 541 480 541C440 541 400 541 360 541C320 541 280 541 240 541C200 541 160 541 120 541C80 541 40 541 20 541L0 541Z" fill="#6d57f2"></path><path d="M0 341L20 341.5C40 342 80 343 120 348.7C160 354.3 200 364.7 240 374.5C280 384.3 320 393.7 360 387.2C400 380.7 440 358.3 480 348C520 337.7 560 339.3 600 336.8C640 334.3 680 327.7 720 329C760 330.3 800 339.7 840 337.7C880 335.7 920 322.3 940 315.7L960 309L960 541L940 541C920 541 880 541 840 541C800 541 760 541 720 541C680 541 640 541 600 541C560 541 520 541 480 541C440 541 400 541 360 541C320 541 280 541 240 541C200 541 160 541 120 541C80 541 40 541 20 541L0 541Z" fill="#6d4ae5"></path><path d="M0 408L20 409.8C40 411.7 80 415.3 120 423.2C160 431 200 443 240 442.7C280 442.3 320 429.7 360 415.3C400 401 440 385 480 381.5C520 378 560 387 600 396C640 405 680 414 720 409.7C760 405.3 800 387.7 840 382.5C880 377.3 920 384.7 940 388.3L960 392L960 541L940 541C920 541 880 541 840 541C800 541 760 541 720 541C680 541 640 541 600 541C560 541 520 541 480 541C440 541 400 541 360 541C320 541 280 541 240 541C200 541 160 541 120 541C80 541 40 541 20 541L0 541Z" fill="#6d3cd8"></path><path d="M0 463L20 468.2C40 473.3 80 483.7 120 481.5C160 479.3 200 464.7 240 457.7C280 450.7 320 451.3 360 455C400 458.7 440 465.3 480 471.7C520 478 560 484 600 484C640 484 680 478 720 471.3C760 464.7 800 457.3 840 454.5C880 451.7 920 453.3 940 454.2L960 455L960 541L940 541C920 541 880 541 840 541C800 541 760 541 720 541C680 541 640 541 600 541C560 541 520 541 480 541C440 541 400 541 360 541C320 541 280 541 240 541C200 541 160 541 120 541C80 541 40 541 20 541L0 541Z" fill="#6c2dca"></path></svg>