<svg id="visual" viewBox="0 0 900 600" width="900" height="600" xmlns="http://www.w3.org/2000/svg" xmlns:xlink="http://www.w3.org/1999/xlink" version="1.1"><path d="M0 121L13.7 128C27.3 135 54.7 149 82 137C109.3 125 136.7 87 163.8 71C191 55 218 61 245.2 83C272.3 105 299.7 143 327 144C354.3 145 381.7 109 409 101C436.3 93 463.7 113 491 120C518.3 127 545.7 121 573 119C600.3 117 627.7 119 654.8 121C682 123 709 125 736.2 116C763.3 107 790.7 87 818 90C845.3 93 872.7 119 886.3 132L900 145L900 0L886.3 0C872.7 0 845.3 0 818 0C790.7 0 763.3 0 736.2 0C709 0 682 0 654.8 0C627.7 0 600.3 0 573 0C545.7 0 518.3 0 491 0C463.7 0 436.3 0 409 0C381.7 0 354.3 0 327 0C299.7 0 272.3 0 245.2 0C218 0 191 0 163.8 0C136.7 0 109.3 0 82 0C54.7 0 27.3 0 13.7 0L0 0Z" fill="#6a82eb"></path><path d="M0 199L13.7 200C27.3 201 54.7 203 82 195C109.3 187 136.7 169 163.8 158C191 147 218 143 245.2 154C272.3 165 299.7 191 327 191C354.3 191 381.7 165 409 158C436.3 151 463.7 163 491 168C518.3 173 545.7 171 573 175C600.3 179 627.7 189 654.8 189C682 189 709 179 736.2 167C763.3 155 790.7 141 818 153C845.3 165 872.7 203 886.3 222L900 241L900 143L886.3 130C872.7 117 845.3 91 818 88C790.7 85 763.3 105 736.2 114C709 123 682 121 654.8 119C627.7 117 600.3 115 573 117C545.7 119 518.3 125 491 118C463.7 111 436.3 91 409 99C381.7 107 354.3 143 327 142C299.7 141 272.3 103 245.2 81C218 59 191 53 163.8 69C136.7 85 109.3 123 82 135C54.7 147 27.3 133 13.7 126L0 119Z" fill="#4171f8"></path><path d="M0 265L13.7 265C27.3 265 54.7 265 82 258C109.3 251 136.7 237 163.8 226C191 215 218 207 245.2 213C272.3 219 299.7 239 327 241C354.3 243 381.7 227 409 223C436.3 219 463.7 227 491 231C518.3 235 545.7 235 573 245C600.3 255 627.7 275 654.8 280C682 285 709 275 736.2 266C763.3 257 790.7 249 818 256C845.3 263 872.7 285 886.3 296L900 307L900 239L886.3 220C872.7 201 845.3 163 818 151C790.7 139 763.3 153 736.2 165C709 177 682 187 654.8 187C627.7 187 600.3 177 573 173C545.7 169 518.3 171 491 166C463.7 161 436.3 149 409 156C381.7 163 354.3 189 327 189C299.7 189 272.3 163 245.2 152C218 141 191 145 163.8 156C136.7 167 109.3 185 82 193C54.7 201 27.3 199 13.7 198L0 197Z" fill="#0066ff"></path><path d="M0 487L13.7 492C27.3 497 54.7 507 82 506C109.3 505 136.7 493 163.8 478C191 463 218 445 245.2 437C272.3 429 299.7 431 327 428C354.3 425 381.7 417 409 403C436.3 389 463.7 369 491 382C518.3 395 545.7 441 573 458C600.3 475 627.7 463 654.8 444C682 425 709 399 736.2 381C763.3 363 790.7 353 818 371C845.3 389 872.7 435 886.3 458L900 481L900 305L886.3 294C872.7 283 845.3 261 818 254C790.7 247 763.3 255 736.2 264C709 273 682 283 654.8 278C627.7 273 600.3 253 573 243C545.7 233 518.3 233 491 229C463.7 225 436.3 217 409 221C381.7 225 354.3 241 327 239C299.7 237 272.3 217 245.2 211C218 205 191 213 163.8 224C136.7 235 109.3 249 82 256C54.7 263 27.3 263 13.7 263L0 263Z" fill="#4171f8"></path><path d="M0 601L13.7 601C27.3 601 54.7 601 82 601C109.3 601 136.7 601 163.8 601C191 601 218 601 245.2 601C272.3 601 299.7 601 327 601C354.3 601 381.7 601 409 601C436.3 601 463.7 601 491 601C518.3 601 545.7 601 573 601C600.3 601 627.7 601 654.8 601C682 601 709 601 736.2 601C763.3 601 790.7 601 818 601C845.3 601 872.7 601 886.3 601L900 601L900 479L886.3 456C872.7 433 845.3 387 818 369C790.7 351 763.3 361 736.2 379C709 397 682 423 654.8 442C627.7 461 600.3 473 573 456C545.7 439 518.3 393 491 380C463.7 367 436.3 387 409 401C381.7 415 354.3 423 327 426C299.7 429 272.3 427 245.2 435C218 443 191 461 163.8 476C136.7 491 109.3 503 82 504C54.7 505 27.3 495 13.7 490L0 485Z" fill="#6a82eb"></path></svg>