<svg id="visual" viewBox="0 0 900 600" width="900" height="600" xmlns="http://www.w3.org/2000/svg" xmlns:xlink="http://www.w3.org/1999/xlink" version="1.1"><rect x="0" y="0" width="900" height="600" fill="#001220"></rect><defs><linearGradient id="grad1_0" x1="33.3%" y1="100%" x2="100%" y2="0%"><stop offset="20%" stop-color="#fbae3c" stop-opacity="1"></stop><stop offset="80%" stop-color="#fbae3c" stop-opacity="1"></stop></linearGradient></defs><defs><linearGradient id="grad1_1" x1="33.3%" y1="100%" x2="100%" y2="0%"><stop offset="20%" stop-color="#fbae3c" stop-opacity="1"></stop><stop offset="80%" stop-color="#cc5867" stop-opacity="1"></stop></linearGradient></defs><defs><linearGradient id="grad1_2" x1="33.3%" y1="100%" x2="100%" y2="0%"><stop offset="20%" stop-color="#593762" stop-opacity="1"></stop><stop offset="80%" stop-color="#cc5867" stop-opacity="1"></stop></linearGradient></defs><defs><linearGradient id="grad1_3" x1="33.3%" y1="100%" x2="100%" y2="0%"><stop offset="20%" stop-color="#593762" stop-opacity="1"></stop><stop offset="80%" stop-color="#001220" stop-opacity="1"></stop></linearGradient></defs><defs><linearGradient id="grad2_0" x1="0%" y1="100%" x2="66.7%" y2="0%"><stop offset="20%" stop-color="#fbae3c" stop-opacity="1"></stop><stop offset="80%" stop-color="#fbae3c" stop-opacity="1"></stop></linearGradient></defs><defs><linearGradient id="grad2_1" x1="0%" y1="100%" x2="66.7%" y2="0%"><stop offset="20%" stop-color="#cc5867" stop-opacity="1"></stop><stop offset="80%" stop-color="#fbae3c" stop-opacity="1"></stop></linearGradient></defs><defs><linearGradient id="grad2_2" x1="0%" y1="100%" x2="66.7%" y2="0%"><stop offset="20%" stop-color="#cc5867" stop-opacity="1"></stop><stop offset="80%" stop-color="#593762" stop-opacity="1"></stop></linearGradient></defs><defs><linearGradient id="grad2_3" x1="0%" y1="100%" x2="66.7%" y2="0%"><stop offset="20%" stop-color="#001220" stop-opacity="1"></stop><stop offset="80%" stop-color="#593762" stop-opacity="1"></stop></linearGradient></defs><g transform="translate(900, 600)"><path d="M-297.5 0C-279.6 -26.8 -261.7 -53.6 -250.1 -81.3C-238.5 -108.9 -233.1 -137.5 -217.6 -158.1C-202.1 -178.7 -176.4 -191.4 -155.2 -213.6C-133.9 -235.7 -117 -267.3 -91.9 -282.9C-66.8 -298.5 -33.4 -298 0 -297.5L0 0Z" fill="#232745"></path><path d="M-223.1 0C-209.7 -20.1 -196.3 -40.2 -187.6 -61C-178.9 -81.7 -174.9 -103.1 -163.2 -118.6C-151.6 -134.1 -132.3 -143.6 -116.4 -160.2C-100.4 -176.8 -87.8 -200.5 -68.9 -212.2C-50.1 -223.8 -25 -223.5 0 -223.1L0 0Z" fill="#96446e"></path><path d="M-148.7 0C-139.8 -13.4 -130.9 -26.8 -125.1 -40.6C-119.3 -54.5 -116.6 -68.7 -108.8 -79.1C-101.1 -89.4 -88.2 -95.7 -77.6 -106.8C-67 -117.9 -58.5 -133.7 -46 -141.4C-33.4 -149.2 -16.7 -149 0 -148.7L0 0Z" fill="#f17c53"></path><path d="M-74.4 0C-69.9 -6.7 -65.4 -13.4 -62.5 -20.3C-59.6 -27.2 -58.3 -34.4 -54.4 -39.5C-50.5 -44.7 -44.1 -47.9 -38.8 -53.4C-33.5 -58.9 -29.3 -66.8 -23 -70.7C-16.7 -74.6 -8.3 -74.5 0 -74.4L0 0Z" fill="#fbae3c"></path></g><g transform="translate(0, 0)"><path d="M297.5 0C292.3 33.5 287.2 67 264.4 85.9C241.6 104.9 201.3 109.3 187.7 136.4C174.1 163.5 187.4 213.3 174.8 240.6C162.3 268 124 272.9 90.5 278.7C57.1 284.4 28.6 290.9 0 297.5L0 0Z" fill="#232745"></path><path d="M223.1 0C219.2 25.1 215.4 50.2 198.3 64.4C181.2 78.6 150.9 81.9 140.8 102.3C130.6 122.6 140.5 160 131.1 180.5C121.7 201 93 204.7 67.9 209C42.8 213.3 21.4 218.2 0 223.1L0 0Z" fill="#96446e"></path><path d="M148.7 0C146.2 16.7 143.6 33.5 132.2 43C120.8 52.4 100.6 54.6 93.8 68.2C87.1 81.7 93.7 106.6 87.4 120.3C81.2 134 62 136.5 45.3 139.3C28.6 142.2 14.3 145.5 0 148.7L0 0Z" fill="#f17c53"></path><path d="M74.4 0C73.1 8.4 71.8 16.7 66.1 21.5C60.4 26.2 50.3 27.3 46.9 34.1C43.5 40.9 46.8 53.3 43.7 60.2C40.6 67 31 68.2 22.6 69.7C14.3 71.1 7.1 72.7 0 74.4L0 0Z" fill="#fbae3c"></path></g></svg>